<?xml version="1.0" encoding="UTF-8" standalone="no"?>
<!DOCTYPE svg PUBLIC "-//W3C//DTD SVG 1.1//EN" "http://www.w3.org/Graphics/SVG/1.1/DTD/svg11.dtd">
<svg width="100%" height="100%" viewBox="0 0 512 512" version="1.1" xmlns="http://www.w3.org/2000/svg" xmlns:xlink="http://www.w3.org/1999/xlink" xml:space="preserve" xmlns:serif="http://www.serif.com/" style="fill-rule:evenodd;clip-rule:evenodd;stroke-linecap:round;stroke-linejoin:round;stroke-miterlimit:1.5;">
    <g transform="matrix(0.976,0,0,0.976,6.144,6.144)">
        <g transform="matrix(1.30325,0,0,1.30325,-105.106,-89.8192)">
            <circle cx="282.388" cy="265.351" r="143.871" style="fill:#2bcb6d;"/>
        </g>
        <g transform="matrix(1.25,0,0,1.25,-57.0838,-64)">
            <path d="M146.777,260.854c0,0 -45.297,139.301 -40.777,143.82c4.52,4.52 155.825,-37.024 155.825,-37.024l-115.048,-106.796Z" style="fill:#2bcb6d;"/>
        </g>
        <g>
            <g transform="matrix(1.25,0,0,1.25,-57.0838,-64)">
                <path d="M397.815,153.789l-25.655,12.922" style="fill:none;stroke:#f4f3f2;stroke-width:30.57px;"/>
            </g>
            <g transform="matrix(1.25,0,0,1.25,-57.0838,-64)">
                <path d="M397.815,153.789l-2.113,18.169l37.505,45.034c-0,-0 4.633,11.769 -2.842,17.946c-6.495,5.367 -15.332,1.47 -15.332,1.47c-0,0 -9.84,-10.883 -10.718,-10.718c-10.414,1.963 -19.796,-0.867 -25.543,-4.155c-5.276,-3.018 -8.941,-15.572 -8.941,-15.572c-4.35,19.829 -2.353,43.822 -16.931,64.929c-0,0 -22.659,-38.571 -54.677,-40.852c-8.283,-0.59 -89.783,-1.088 -89.783,-1.088" style="fill:none;stroke:#f4f3f2;stroke-width:30.57px;"/>
            </g>
            <g transform="matrix(1.25,0,0,1.25,-57.0838,-64)">
                <path d="M352.9,270.892l-2,12.308l-8.252,-2.949" style="fill:none;stroke:#f4f3f2;stroke-width:30.57px;"/>
            </g>
            <g transform="matrix(1.25,0,0,1.25,-57.0838,-64)">
                <path d="M350.92,283.193l36.774,10.65c0,-0 17.831,26.115 22.135,35.726c3.031,6.769 3.689,21.941 3.689,21.941l-22.911,-6.213c-0,-0 1.725,-7.251 0.324,-10.437c-2.546,-5.79 -15.601,-24.304 -15.601,-24.304l-37.124,-4.194c-0,0 5.754,20.119 4.442,22.834c-2.105,4.354 -22.575,17.682 -31.47,21.281c-6.768,2.738 -21.902,0.31 -21.902,0.31l6.058,-18.95c0,-0 8.008,1.13 11.495,-0.466c3.676,-1.683 10.562,-9.631 10.562,-9.631l-6.834,-14.601c-0.309,0.308 -10.598,-20.683 -13.359,-34.173" style="fill:none;stroke:#f4f3f2;stroke-width:30.57px;"/>
            </g>
            <g transform="matrix(1.25,0,0,1.25,-57.0838,-64)">
                <path d="M338.206,306.362c-13.766,-1.515 -29.227,-3.319 -29.74,-3.055c-14.945,7.701 -49.783,-5.912 -64.927,-8.433c-8.807,-1.466 -14.681,-0.9 -25.934,-6.694" style="fill:none;stroke:#f4f3f2;stroke-width:30.57px;"/>
            </g>
            <g transform="matrix(1.25,0,0,1.25,-57.0838,-64)">
                <path d="M207.151,303.058c-0,-0 12.373,-21.316 17.58,-23.751c8.291,-3.877 58.732,-30.517 88.35,-63.521c25.894,-28.854 59.079,-49.075 59.079,-49.075c-0,-0 -30.096,-14.563 -70.871,26.94c-40.775,41.503 -40.775,33.251 -65.774,34.222c-24.999,0.971 -26.448,0.855 -26.448,0.855c-0,0 -43.411,7.226 -41.271,44.86c1.864,32.775 -25.008,29.979 -25.008,29.979c-0,0 -7.923,40.242 -25.941,29.823c-0.411,-0.238 -7.922,22.369 -7.922,22.369c0,0 34.136,5.613 47.354,-33.479c0.974,-2.879 44.277,-6.893 50.872,-19.222c3.792,-7.091 -4.419,26.297 -4.419,26.297c-0,-0 27.695,16.624 34.126,22.05c0.961,0.81 2.852,5.313 4.101,10.925c0.031,0.139 22.508,0.001 22.508,0.001c-0,0 -0.235,-17.91 -33.427,-37.636c-1.729,-1.027 13.041,-29.261 13.041,-29.261" style="fill:none;stroke:#f4f3f2;stroke-width:30.57px;"/>
            </g>
            <g transform="matrix(1.25,0,0,1.25,-57.0838,-64)">
                <path d="M182.688,240.394c-15.3,-4.52 -17.109,-7.508 -30.233,-7.674c-12.831,-0.162 -25.489,6.529 -38.658,17.637c-12.956,10.929 -29.772,18.797 -46.538,17.655c-6.295,-0.429 20.173,16.635 34.984,16.403c11.137,-0.175 24.019,-3.662 33.303,-13.62c9.456,-10.141 26.013,-24.223 36.485,-17.795" style="fill:none;stroke:#f4f3f2;stroke-width:30.57px;"/>
            </g>
        </g>
        <g>
            <g transform="matrix(1.25,0,0,1.25,-57.0838,-64)">
                <path d="M397.815,153.789l-25.655,12.922" style="fill:none;stroke:#424646;stroke-width:7.38px;"/>
            </g>
            <g transform="matrix(1.25,0,0,1.25,-57.0838,-64)">
                <path d="M397.815,153.789l-2.113,18.169l37.505,45.034c-0,-0 4.633,11.769 -2.842,17.946c-6.495,5.367 -15.332,1.47 -15.332,1.47c-0,0 -9.84,-10.883 -10.718,-10.718c-10.414,1.963 -19.796,-0.867 -25.543,-4.155c-5.276,-3.018 -8.941,-15.572 -8.941,-15.572c-4.35,19.829 -2.353,43.822 -16.931,64.929c-0,0 -22.659,-38.571 -54.677,-40.852c-8.283,-0.59 -89.783,-1.088 -89.783,-1.088" style="fill:none;stroke:#424646;stroke-width:7.38px;"/>
            </g>
            <g transform="matrix(1.25,0,0,1.25,-57.0838,-64)">
                <path d="M352.9,270.892l-2,12.308l-8.252,-2.949" style="fill:none;stroke:#424646;stroke-width:7.38px;"/>
            </g>
            <g transform="matrix(1.25,0,0,1.25,-57.0838,-64)">
                <path d="M350.92,283.193l36.774,10.65c0,-0 17.831,26.115 22.135,35.726c3.031,6.769 3.689,21.941 3.689,21.941l-22.911,-6.213c-0,-0 1.725,-7.251 0.324,-10.437c-2.546,-5.79 -15.601,-24.304 -15.601,-24.304l-37.124,-4.194c-0,0 5.754,20.119 4.442,22.834c-2.105,4.354 -22.575,17.682 -31.47,21.281c-6.768,2.738 -21.902,0.31 -21.902,0.31l6.058,-18.95c0,-0 8.008,1.13 11.495,-0.466c3.676,-1.683 10.562,-9.631 10.562,-9.631l-6.834,-14.601c-0.309,0.308 -10.598,-20.683 -13.359,-34.173" style="fill:none;stroke:#424646;stroke-width:7.38px;"/>
            </g>
            <g transform="matrix(1.25,0,0,1.25,-57.0838,-64)">
                <path d="M338.206,306.362c-13.766,-1.515 -29.227,-3.319 -29.74,-3.055c-14.945,7.701 -49.783,-5.912 -64.927,-8.433c-8.807,-1.466 -14.681,-0.9 -25.934,-6.694" style="fill:none;stroke:#424646;stroke-width:7.38px;"/>
            </g>
            <g transform="matrix(1.25,0,0,1.25,-57.0838,-64)">
                <path d="M207.151,303.058c-0,-0 12.373,-21.316 17.58,-23.751c8.291,-3.877 58.732,-30.517 88.35,-63.521c25.894,-28.854 59.079,-49.075 59.079,-49.075c-0,-0 -30.096,-14.563 -70.871,26.94c-40.775,41.503 -40.775,33.251 -65.774,34.222c-24.999,0.971 -26.448,0.855 -26.448,0.855c-0,0 -43.411,7.226 -41.271,44.86c1.864,32.775 -25.008,29.979 -25.008,29.979c-0,0 -7.923,40.242 -25.941,29.823c-0.411,-0.238 -7.922,22.369 -7.922,22.369c0,0 34.136,5.613 47.354,-33.479c0.974,-2.879 44.277,-6.893 50.872,-19.222c3.792,-7.091 -4.419,26.297 -4.419,26.297c-0,-0 27.695,16.624 34.126,22.05c0.961,0.81 2.852,5.313 4.101,10.925c0.031,0.139 22.508,0.001 22.508,0.001c-0,0 -0.235,-17.91 -33.427,-37.636c-1.729,-1.027 13.041,-29.261 13.041,-29.261" style="fill:none;stroke:#424646;stroke-width:7.38px;"/>
            </g>
            <g transform="matrix(1.25,0,0,1.25,-57.0838,-64)">
                <path d="M182.688,240.394c-15.3,-4.52 -17.109,-7.508 -30.233,-7.674c-12.831,-0.162 -25.489,6.529 -38.658,17.637c-12.956,10.929 -29.772,18.797 -46.538,17.655c-6.295,-0.429 20.173,16.635 34.984,16.403c11.137,-0.175 24.019,-3.662 33.303,-13.62c9.456,-10.141 26.013,-24.223 36.485,-17.795" style="fill:none;stroke:#424646;stroke-width:7.38px;"/>
            </g>
        </g>
    </g>
</svg>
